<?xml version="1.0" encoding="utf-8"?>
<!-- Generator: Adobe Illustrator 26.0.2, SVG Export Plug-In . SVG Version: 6.00 Build 0)  -->
<svg version="1.1" id="Layer_1" xmlns="http://www.w3.org/2000/svg" xmlns:xlink="http://www.w3.org/1999/xlink" x="0px" y="0px"
	 viewBox="0 0 550.38 252.25" style="enable-background:new 0 0 550.38 252.25;" xml:space="preserve">
<style type="text/css">
	.st0{fill:none;stroke:#000000;}
	.st1{fill:none;stroke:#000000;stroke-linecap:square;}
	.st2{fill:none;stroke:#000000;stroke-miterlimit:10;}
</style>
<g>
	<g>
		<g>
			<path class="st0" d="M78.41,68.28c3.02,0.87,11.35,1.51,19.84,1.51c1.91,0,4.84-0.08,7.3-0.08c-0.08-10.4-0.08-10.4-0.32-12.07
				h4.52c-0.4,1.75-0.48,4.29-0.56,11.83c10.4-0.63,19.61-1.91,23.5-3.33l0.32,3.81c-1.19,0.08-1.19,0.08-5.08,0.63
				c-7.62,1.19-10.56,1.51-18.73,1.98c0.08,1.83,0.08,1.83,0.24,12.14c10.87-0.79,18.02-1.91,22.07-3.41l0.32,3.81
				c-1.03,0.08-1.03,0.08-4.37,0.63c-4.84,0.79-12.3,1.67-17.94,1.98l0.4,13.49c7.38,2.22,14.13,5.79,22.07,11.75
				c1.27,0.87,1.67,1.19,2.7,1.75l-2.22,3.89c-2.3-2.38-4.84-4.37-8.81-7.06c-3.41-2.3-6.27-3.81-11.99-6.19
				c-0.63-0.24-1.03-0.48-1.75-0.79c0.24,1.11,0.32,2.14,0.32,3.97c0,4.6-0.79,7.3-2.62,9.13c-2.46,2.46-6.75,3.81-11.91,3.81
				c-4.68,0-9.13-1.11-11.99-3.1c-2.62-1.75-3.89-4.29-3.89-7.62c0-6.91,6.99-11.27,18.1-11.27c3.57,0,5.95,0.32,8.33,1.03
				c-0.08-0.79-0.24-4.92-0.48-12.54c-3.57,0.08-7.22,0.16-9.68,0.16c-4.92,0-9.13-0.16-13.26-0.56c-0.87-0.08-1.43-0.16-1.83-0.16
				c-0.16,0-0.4,0-0.71,0l0.08-3.65c3.57,0.87,9.84,1.35,17.62,1.35c2.22,0,5.24-0.08,7.7-0.16c-0.08-7.06-0.16-11.11-0.16-12.22
				c-2.62,0.08-4.13,0.08-6.03,0.08c-5.79,0-13.65-0.32-18.81-0.79c-0.63-0.08-1.03-0.08-1.35-0.08c-0.24,0-0.55,0-1.03,0
				L78.41,68.28z M106.35,103.76c-3.17-0.79-4.92-0.95-8.81-0.95c-8.49,0-14.05,3.18-14.05,8.02c0,4.29,4.84,7.22,11.99,7.22
				c4.37,0,7.7-1.11,9.37-3.02c1.11-1.35,1.59-3.41,1.59-7.38L106.35,103.76z"/>
			<path class="st0" d="M179.62,59.07c-1.03,1.75-1.03,1.75-9.21,22.7c-1.91,4.84-3.17,7.86-5.64,13.1l-2.22,4.68l0.4,0.16
				c1.83-2.94,2.3-3.73,3.41-5.16c3.81-4.92,7.62-7.14,12.07-7.14c3.89,0,6.83,1.67,8.18,4.76c0.71,1.51,0.87,2.86,0.95,6.67
				l0.08,7.14c0,4.76,0.32,6.35,1.51,7.94c1.19,1.59,3.81,2.62,6.67,2.62c6.11,0,10.64-3.41,13.81-10.56
				c1.67-3.49,2.54-6.75,3.1-10.64c1.35,1.51,1.83,1.98,3.49,3.17c-1.75,6.27-3.02,9.45-5.24,12.86c-3.65,5.71-8.97,8.73-15.32,8.73
				c-4.45,0-8.18-1.67-9.92-4.52c-1.27-2.06-1.75-4.29-1.75-8.57c0-0.24,0-0.24,0.08-5.56c0-0.32,0-0.63,0-1.03
				c0-2.3-0.08-4.13-0.32-5.4c-0.48-2.86-2.38-4.37-5.4-4.37c-2.86,0-5.64,1.35-8.73,4.29c-4.52,4.29-7.38,8.89-10.64,17.15
				c-1.98,5-2.62,6.75-3.1,8.89l-4.13-1.27c0.87-1.83,3.1-7.7,12.54-32.31c8.57-22.46,10.4-27.46,10.87-29.77L179.62,59.07z"/>
			<path class="st0" d="M230.98,77.72c2.62-0.08,2.62-0.08,12.38-1.51c2.46-0.32,3.65-0.48,5.64-0.71
				c1.35-6.27,2.46-13.89,2.46-17.07c0-0.24-0.08-0.56-0.08-0.95l4.53,0.48c-0.4,1.19-0.48,1.59-0.71,2.94
				c-0.24,1.19-0.48,2.14-0.56,3.02c-0.24,1.27-0.63,3.81-1.35,7.7c-0.4,2.46-0.4,2.54-0.71,3.57c2.94-0.24,4.52-0.32,6.43-0.32
				c4.13,0,7.22,0.95,9.52,2.94c2.78,2.38,3.81,5.79,3.81,12.3c0,11.91-1.91,22.07-5,26.59c-1.83,2.54-3.89,3.65-7.06,3.65
				c-2.86,0-6.51-1.11-11.91-3.49c0.16-1.11,0.24-1.59,0.24-2.54v-1.35c4.76,2.54,8.89,3.89,11.83,3.89c2.14,0,3.73-1.43,5-4.45
				c2.14-5.16,3.33-13.49,3.33-22.86c0-8.73-2.7-11.59-10.72-11.59c-1.83,0-1.91,0-6.11,0.4c-2.7,11.91-6.83,23.34-12.54,34.37
				c-0.87,1.75-2.54,4.68-5,8.81l-3.57-2.3c2.46-3.02,5.48-8.1,8.33-14.05c3.81-8.1,6.91-16.99,9.13-26.51l-5.24,0.79
				c-4.6,0.63-8.1,1.27-11.51,2.22L230.98,77.72z M281.54,70.66c8.18,8.49,12.78,15.96,16.67,26.75l-3.17,2.14
				c-3.17-10.32-8.81-19.69-16.43-27.07L281.54,70.66z M285.43,56.69c2.94,3.65,5.71,7.86,8.18,12.38l-2.94,1.75
				c-2.3-4.76-5.16-9.13-8.02-12.62L285.43,56.69z M293.85,52.64c3.02,3.73,5.56,7.54,8.02,11.99l-2.94,1.75
				c-2.3-4.52-4.84-8.49-7.78-12.22L293.85,52.64z"/>
			<path class="st0" d="M316.23,69.71c0-4.05-0.08-6.35-0.32-8.89c1.9,0.16,3.57,0.24,5.79,0.24h4.6c2.62,0,4.29-0.08,6.19-0.24
				c-0.24,2.46-0.24,3.73-0.24,8.73v34.53c0,4.52,0.08,6.03,0.24,8.33h-3.41v-6.03h-9.68v9.13h-3.65c0.4-2.7,0.48-4.52,0.48-8.89
				V69.71z M319.41,103.52h9.68V63.91h-9.68V103.52z M361.24,104.31c4.84,8.81,12.86,14.68,24.84,18.18
				c-0.95,1.11-1.51,1.98-1.98,3.17c-6.83-2.62-11.83-5.32-15.72-8.57c-4.37-3.49-7.38-7.22-9.68-11.67
				c-3.25,10.24-11.03,16.43-25.4,20.24c-0.48-1.11-0.95-1.9-1.98-3.1c4.84-1.03,7.78-1.9,10.79-3.33
				c7.54-3.57,11.51-7.94,13.65-14.92h-11.51c-4.21,0-5.95,0.08-7.94,0.4v-3.65c1.91,0.32,3.65,0.4,7.94,0.4h12.22
				c0.24-1.51,0.4-3.09,0.4-4.68c0-0.48,0-0.71-0.08-1.27h3.89c-0.24,0.95-0.56,2.94-1.03,5.95h17.22c3.81,0,5.87-0.16,7.94-0.48
				v3.81c-2.22-0.4-4.13-0.48-7.94-0.48H361.24z M341.47,77.41c-2.22,0-3.57,0.08-5.16,0.32v-3.25c1.51,0.24,2.78,0.32,5.16,0.32
				h3.57l-0.08-9.21h-5.24c-2.22,0-3.33,0.08-4.84,0.32v-3.25c1.43,0.24,2.54,0.32,4.84,0.32h5.16v-1.19
				c-0.08-3.57-0.16-4.76-0.56-6.83h4.05c-0.32,1.59-0.48,3.41-0.48,6.03v1.98h5.24c2.7,0,4.05-0.08,5.24-0.32v3.25
				c-1.59-0.24-2.78-0.32-5.16-0.32h-5.24l0.08,9.21h4.6c2.38,0,3.49-0.08,4.92-0.32v3.25c-1.51-0.24-2.7-0.32-4.92-0.32h-4.6
				l0.16,9.6c4.13-1.03,5.64-1.43,9.29-2.54l0.08,2.62c-6.98,2.14-10.56,3.1-19.29,5.08c-1.11,0.24-1.98,0.48-3.1,0.87l-0.95-3.49
				c2.46-0.16,4.84-0.56,10.95-1.9l-0.16-10.24H341.47z M365.44,62.96c-2.14,0-3.65,0.08-5.48,0.32v-3.57
				c1.83,0.32,3.1,0.4,6.11,0.4h12.14c2.54,0,3.89-0.08,5.4-0.24c-0.32,2.78-0.32,2.78-0.64,7.94c-0.71,11.83-1.43,17.78-2.62,21.04
				c-0.87,2.62-2.06,3.33-5.71,3.33c-2.54,0-3.1-0.08-6.83-0.56c-0.08-1.27-0.16-1.98-0.56-3.25c3.41,0.63,5.16,0.79,7.3,0.79
				c2.86,0,3.02-0.32,4.13-6.99c0.63-3.73,0.87-7.46,1.51-19.21h-10.16c-0.71,10-1.35,13.89-3.33,18.5
				c-2.14,5.24-5.16,8.89-10.88,13.41c-0.63-0.87-1.27-1.43-2.38-2.22c5.64-3.81,9.13-8.02,11.11-13.65
				c1.59-4.37,2.14-8.33,2.3-16.03H365.44z"/>
			<path class="st0" d="M437.2,70.74c3.17,4.37,8.89,9.21,15.8,13.33c6.03,3.57,11.75,5.95,19.05,8.02
				c-1.27,1.11-1.83,1.83-2.54,3.18c-6.98-2.46-12.22-5-18.49-8.89c-6.75-4.21-11.19-7.94-15.48-13.1
				c-8.18,10-18.26,16.67-33.1,21.99c-0.56-1.11-1.35-2.14-2.38-3.02c7.62-1.98,13.49-4.6,20.08-9.05
				c5.79-3.89,10.56-8.25,13.57-12.46H437.2z M410.06,65.98c-3.97,0-6.43,0.08-8.65,0.4v-3.81c2.14,0.32,4.6,0.48,8.65,0.48h11.99
				v-1.59c0-2.06-0.16-4.13-0.48-6.11h4.21c-0.32,1.91-0.48,3.97-0.48,6.11v1.59h21.19v-1.35c0-2.06-0.16-4.13-0.48-6.11h4.21
				c-0.32,1.91-0.48,3.97-0.48,6.11v1.35h12.22c4.13,0,6.59-0.16,8.73-0.48v3.81c-2.22-0.32-4.76-0.4-8.73-0.4h-12.22v3.17
				c0,1.83,0.16,3.57,0.4,5.64h-3.97c0.24-1.83,0.32-3.49,0.32-5.64v-3.17H425.3v2.94c0,2.3,0.08,3.89,0.32,5.64h-3.97
				c0.24-2.14,0.4-3.89,0.4-5.64v-2.94H410.06z M423.63,105.82c-3.17,5-5,7.3-8.33,10.56c-2.94,2.86-4.92,4.52-8.65,7.06
				c-0.79-1.11-1.43-1.75-2.7-2.54c3.81-2.22,6.27-4.05,9.13-6.83c3.41-3.17,4.92-5.4,7.3-10L423.63,105.82z M454.19,96.06
				c4.52,0,6.59-0.08,8.73-0.48v3.89c-2.62-0.32-5.24-0.48-8.73-0.48h-17.22v19.69c0,2.86,0.16,5.32,0.56,7.86h-4.45
				c0.4-2.62,0.56-5.08,0.56-7.86V99h-15.32c-3.41,0-5.87,0.16-8.57,0.48v-3.89c2.06,0.4,4.21,0.48,8.57,0.48h15.32v-5.4
				c0-2.78-0.16-4.6-0.48-6.91h4.29c-0.32,2.22-0.48,4.05-0.48,6.99v5.32H454.19z M451.09,104c4.52,7.22,8.89,11.51,17.22,16.83
				c-1.19,0.79-1.91,1.43-2.7,2.62c-7.62-5.4-11.67-9.45-17.7-17.62L451.09,104z"/>
		</g>
		<g>
			<g>
				<path class="st1" d="M108.43,198.78v-45.6l-16.65,45.6h-5.53L69.75,153.1v45.67h-4.41v-50.64h7.27l16.58,45.96l16.58-45.96h7.13
					v50.64H108.43z"/>
				<path class="st1" d="M164.53,198.78h-5.18l-5.46-16.3h-20.42l-5.46,16.3h-4.62l17.21-50.64h6.43L164.53,198.78z M134.87,178.35
					h17.7l-8.81-26.37L134.87,178.35z"/>
				<path class="st1" d="M179.5,153.17v45.6h-4.48v-50.64h6.71l26.3,44.98v-44.98h4.41v50.64h-5.95L179.5,153.17z"/>
				<path class="st1" d="M245.32,199.61c-15.25,0-21.68-10.49-21.68-25.6c0-17.56,9.16-26.79,23.36-26.79
					c10.42,0,17.35,4.69,18.26,16.51l-4.41,0.49c-0.98-9.51-5.88-13.01-14.06-13.01c-11.4,0-18.4,8.18-18.4,22.38
					c0,17.42,8.04,22.17,17.7,22.17c9.93,0,14.76-7.41,14.76-13.85v-5.25h-15.18v-4.13h19.45v26.23h-3.5l-0.77-7.13
					C259.17,195.91,252.74,199.61,245.32,199.61z"/>
				<path class="st1" d="M315.48,198.78h-5.18l-5.46-16.3h-20.42l-5.46,16.3h-4.62l17.21-50.64h6.43L315.48,198.78z M285.82,178.35
					h17.7l-8.81-26.37L285.82,178.35z"/>
				<path class="st1" d="M354.65,148.13h5.53l-20.49,22.03l21.96,28.61h-5.53l-19.58-25.25l-5.88,6.3v18.96h-4.69v-50.64h4.69v25.95
					L354.65,148.13z"/>
				<path class="st1" d="M407.12,198.78h-5.18l-5.46-16.3h-20.42l-5.46,16.3h-4.62l17.21-50.64h6.43L407.12,198.78z M377.46,178.35
					h17.7l-8.81-26.37L377.46,178.35z"/>
				<path class="st1" d="M417.61,198.78v-50.64h28.61v4.06H422.3v19.72h22.17v4.13H422.3v22.73H417.61z"/>
				<path class="st1" d="M485.04,194.72v4.06h-29.31v-50.64h28.61v4.06h-23.92v18.82h22.38v4.13h-22.38v19.58H485.04z"/>
			</g>
		</g>
	</g>
	<path d="M424.25,252.25H126.13C56.58,252.25,0,195.67,0,126.13S56.58,0,126.13,0h298.13c69.55,0,126.13,56.58,126.13,126.13
		S493.8,252.25,424.25,252.25z M126.13,1C57.13,1,1,57.13,1,126.13s56.13,125.13,125.13,125.13h298.13
		c69,0,125.13-56.13,125.13-125.13S493.25,1,424.25,1H126.13z M424.25,242.25H126.13C62.09,242.25,10,190.16,10,126.13
		S62.09,10,126.13,10h298.13c64.03,0,116.13,52.09,116.13,116.13S488.29,242.25,424.25,242.25z M126.13,11
		C62.65,11,11,62.65,11,126.13s51.65,115.13,115.13,115.13h298.13c63.48,0,115.13-51.65,115.13-115.13S487.74,11,424.25,11H126.13z"
		/>
</g>
</svg>
