<?xml version="1.0" encoding="utf-8"?>
<!-- Generator: Adobe Illustrator 26.0.2, SVG Export Plug-In . SVG Version: 6.00 Build 0)  -->
<svg version="1.1" id="Layer_1" xmlns="http://www.w3.org/2000/svg" xmlns:xlink="http://www.w3.org/1999/xlink" x="0px" y="0px"
	 viewBox="0 0 335.67 252.25" style="enable-background:new 0 0 335.67 252.25;" xml:space="preserve">
<style type="text/css">
	.st0{fill:none;stroke:#000000;}
	.st1{fill:none;stroke:#000000;stroke-linecap:square;}
	.st2{fill:none;stroke:#000000;stroke-miterlimit:10;}
</style>
<g>
	<g>
		<path d="M73.46,122.51c-4.88,0-9.36-1.16-12.27-3.18c-2.72-1.81-4.1-4.52-4.1-8.03c0-7.26,7.13-11.77,18.6-11.77
			c3.2,0,5.52,0.25,7.79,0.86c-0.09-1.6-0.23-5.41-0.41-11.36c-3.22,0.07-6.78,0.15-9.2,0.15c-5.12,0-9.35-0.18-13.3-0.56
			c-0.3-0.03-0.57-0.05-0.8-0.08c-0.42-0.04-0.73-0.08-0.98-0.08h-1.23l0.1-4.79l0.61,0.15c3.52,0.86,9.74,1.33,17.5,1.33
			c1.73,0,4.15-0.05,7.19-0.14c-0.04-3.64-0.08-6.45-0.11-8.44c-0.02-1.26-0.03-2.18-0.04-2.79c-2.32,0.06-3.75,0.06-5.54,0.06
			c-5.93,0-13.86-0.33-18.86-0.8c-0.62-0.08-1-0.08-1.3-0.08h-1.54l0.11-4.81l0.62,0.18c2.98,0.86,11.27,1.49,19.71,1.49
			c0.89,0,2-0.02,3.19-0.04c1.18-0.02,2.44-0.04,3.61-0.04c-0.08-9.86-0.08-9.89-0.31-11.5l-0.08-0.57h5.73l-0.14,0.61
			c-0.37,1.64-0.46,4.02-0.54,11.18c10.39-0.66,19.1-1.9,22.82-3.27l0.62-0.23l0.41,4.97L110.8,71c-1.17,0.08-1.17,0.08-5.04,0.63
			c-7.52,1.17-10.54,1.5-18.28,1.96c0.06,1.41,0.07,2.3,0.21,11.14c10.46-0.78,17.46-1.88,21.4-3.34l0.62-0.23l0.41,4.97l-0.5,0.04
			c-1.01,0.08-1.01,0.08-4.32,0.63c-4.26,0.7-11.47,1.6-17.51,1.96l0.37,12.65c7.32,2.25,14.09,5.88,21.88,11.72l0.67,0.46
			c0.78,0.54,1.17,0.81,1.96,1.24l0.45,0.24l-2.81,4.91l-0.46-0.48c-2.15-2.23-4.6-4.19-8.73-7c-3.48-2.35-6.37-3.84-11.9-6.14
			c-0.33-0.12-0.6-0.25-0.9-0.39c0.11,0.83,0.16,1.76,0.16,3.11c0,4.71-0.83,7.54-2.77,9.48C83.17,121.11,78.81,122.51,73.46,122.51
			z M75.68,100.53c-10.85,0-17.6,4.13-17.6,10.77c0,3.2,1.2,5.56,3.67,7.2c2.72,1.89,7.09,3.01,11.71,3.01
			c5.09,0,9.19-1.3,11.55-3.66c1.73-1.73,2.47-4.36,2.47-8.77c0-1.82-0.08-2.8-0.31-3.87l-0.21-0.96l0.9,0.4
			c0.28,0.13,0.52,0.24,0.74,0.35c0.32,0.16,0.61,0.3,0.98,0.44c5.61,2.34,8.54,3.85,12.09,6.25c3.9,2.65,6.33,4.57,8.42,6.66
			l1.64-2.88c-0.58-0.33-0.98-0.61-1.62-1.05l-0.68-0.47c-7.83-5.87-14.59-9.47-21.93-11.68l-0.34-0.1l-0.42-14.34l0.49-0.03
			c6.09-0.34,13.54-1.27,17.89-1.98c2.74-0.46,3.24-0.54,3.91-0.6l-0.22-2.67c-4.19,1.42-11.27,2.47-21.59,3.22L86.7,85.8
			l-0.01-0.53c-0.16-10.31-0.16-10.31-0.24-12.13l-0.02-0.49l0.49-0.03c8.07-0.47,11.04-0.79,18.68-1.98
			c3.29-0.47,3.82-0.54,4.62-0.6L110,67.37c-4.16,1.34-12.84,2.53-23.02,3.15l-0.54,0.03l0.01-0.54c0.07-6.83,0.15-9.56,0.45-11.32
			h-3.34c0.17,1.29,0.17,2.41,0.24,11.56l0,0.5h-0.5c-1.31,0-2.75,0.02-4.1,0.04c-1.19,0.02-2.31,0.04-3.21,0.04
			c-8,0-15.89-0.57-19.36-1.37l-0.06,2.51h0.52c0.33,0,0.75,0,1.41,0.08c4.95,0.46,12.84,0.79,18.75,0.79c1.9,0,3.41,0,6.02-0.08
			l0.51-0.02v0.52c0,0.5,0.02,1.59,0.04,3.29c0.03,2.07,0.07,5.05,0.12,8.93l0.01,0.49L83.47,86c-3.29,0.11-5.89,0.16-7.71,0.16
			c-7.42,0-13.46-0.43-17.13-1.23l-0.06,2.53h0.2c0.27,0,0.62,0.03,1.08,0.08c0.23,0.02,0.49,0.05,0.79,0.08
			c3.92,0.38,8.12,0.55,13.21,0.55c2.53,0,6.49-0.09,9.67-0.16l0.5-0.01l0.02,0.5c0.29,9.34,0.42,11.96,0.47,12.51l0.07,0.74
			l-0.71-0.21C81.47,100.82,79.1,100.53,75.68,100.53z M73.22,119.1c-7.47,0-12.49-3.1-12.49-7.72c0-5.17,5.71-8.52,14.55-8.52
			c3.8,0,5.62,0.14,8.93,0.97l0.37,0.09l0.09,4.27c0,4.06-0.48,6.22-1.7,7.71C81.16,117.97,77.7,119.1,73.22,119.1z M75.28,103.86
			c-8.23,0-13.55,2.95-13.55,7.52c0,4.02,4.62,6.72,11.49,6.72c4.13,0,7.41-1.04,8.99-2.84c1.04-1.26,1.46-3.31,1.46-7.05l-0.07-3.5
			C80.81,104.03,79.08,103.86,75.28,103.86z"/>
		<path d="M134,122.17l-5.2-1.6l0.25-0.52c0.73-1.53,2.42-5.93,8.69-22.28l3.83-9.99c8.56-22.42,10.38-27.42,10.85-29.69l0.11-0.54
			l5.57,1.79l-0.32,0.54c-1.01,1.71-1.01,1.71-9.17,22.63c-1.84,4.69-3.1,7.69-5.65,13.13l-0.22,0.46c0.3-0.43,0.6-0.83,0.96-1.3
			c3.88-5.01,7.83-7.34,12.46-7.34c4.14,0,7.21,1.8,8.63,5.06c0.77,1.62,0.92,3.06,0.99,6.86l0.08,7.15c0,4.58,0.29,6.15,1.41,7.64
			c1.1,1.47,3.56,2.42,6.27,2.42c5.92,0,10.29-3.36,13.35-10.26c1.56-3.27,2.47-6.41,3.06-10.5l0.15-1.06l0.71,0.8
			c1.36,1.52,1.8,1.95,3.41,3.1l0.28,0.2l-0.09,0.34c-1.79,6.42-3.08,9.58-5.3,13c-3.74,5.86-9.19,8.96-15.74,8.96
			c-4.66,0-8.53-1.78-10.35-4.76c-1.34-2.18-1.82-4.49-1.82-8.83c0-0.24,0-0.24,0.08-5.56v-1.02c0-2.5-0.1-4.18-0.31-5.31
			c-0.43-2.59-2.13-3.96-4.91-3.96c-2.74,0-5.4,1.32-8.39,4.15c-4.45,4.22-7.3,8.82-10.52,16.97c-1.96,4.94-2.6,6.7-3.07,8.82
			L134,122.17z M130.19,119.96l3.07,0.95c0.48-1.97,1.17-3.85,3-8.44c3.27-8.3,6.19-12.99,10.76-17.32
			c3.18-3.02,6.06-4.42,9.08-4.42c3.28,0,5.38,1.7,5.89,4.78c0.22,1.19,0.32,2.88,0.32,5.48v1.03c-0.08,5.32-0.08,5.32-0.08,5.56
			c0,4.13,0.44,6.31,1.67,8.31c1.64,2.68,5.19,4.29,9.5,4.29c6.19,0,11.34-2.94,14.9-8.5c2.12-3.26,3.37-6.3,5.08-12.39
			c-1.17-0.84-1.73-1.34-2.58-2.26c-0.6,3.71-1.52,6.67-2.98,9.74c-3.24,7.29-7.91,10.84-14.26,10.84c-3.01,0-5.78-1.11-7.07-2.82
			c-1.28-1.7-1.61-3.4-1.61-8.24l-0.08-7.14c-0.08-3.87-0.25-5.08-0.9-6.46c-1.26-2.89-4-4.48-7.72-4.48c-4.29,0-8,2.21-11.67,6.95
			c-1.02,1.31-1.48,2.06-3.03,4.54l-0.58,0.93l-1.28-0.51l2.45-5.16c2.54-5.41,3.79-8.4,5.62-13.07
			c7.31-18.74,8.09-20.75,8.93-22.23l-3.34-1.07c-0.65,2.59-2.8,8.41-10.77,29.3l-3.83,9.99
			C132.98,112.97,131.06,117.98,130.19,119.96z"/>
		<path d="M212.3,122.79l-4.48-2.89l0.35-0.43c2.43-2.98,5.45-8.07,8.27-13.95c3.76-7.98,6.76-16.62,8.92-25.69l-4.51,0.68
			c-4.96,0.68-8.28,1.32-11.45,2.21l-0.55,0.15l-0.71-5.09l0.56-0.02c2.59-0.08,2.59-0.08,12.33-1.5l1.37-0.18
			c1.49-0.19,2.53-0.33,3.92-0.5c1.32-6.21,2.38-13.59,2.38-16.61c0-0.09-0.01-0.18-0.03-0.29c-0.02-0.19-0.05-0.41-0.05-0.66v-0.56
			l5.7,0.6l-0.2,0.59c-0.39,1.17-0.46,1.53-0.7,2.87l-0.19,0.9c-0.17,0.78-0.31,1.46-0.36,2.07c-0.1,0.54-0.22,1.23-0.37,2.12
			c-0.24,1.39-0.55,3.26-0.99,5.62l-0.08,0.52c-0.22,1.4-0.3,1.88-0.44,2.4c2.53-0.2,4-0.26,5.75-0.26c4.24,0,7.46,1,9.85,3.06
			c2.87,2.46,3.98,6.01,3.98,12.68c0,11.99-1.95,22.29-5.09,26.87c-1.95,2.71-4.18,3.87-7.48,3.87c-2.87,0-6.49-1.06-12.11-3.54
			l-0.35-0.15l0.09-0.63c0.13-0.92,0.2-1.37,0.2-2.21v-2.18l0.74,0.39c4.63,2.47,8.75,3.83,11.59,3.83c1.91,0,3.35-1.32,4.54-4.14
			c2.09-5.04,3.29-13.3,3.29-22.67c0-8.39-2.48-11.09-10.22-11.09c-1.76,0-1.88,0-5.71,0.36c-2.73,11.9-6.93,23.38-12.5,34.13
			c-0.87,1.74-2.56,4.72-5.02,8.84L212.3,122.79z M209.3,119.67l2.67,1.72c2.3-3.87,3.89-6.67,4.72-8.33
			c5.59-10.79,9.79-22.32,12.5-34.26l0.08-0.35l0.36-0.03c4.23-0.4,4.3-0.4,6.16-0.4c8.28,0,11.22,3.16,11.22,12.09
			c0,9.49-1.23,17.89-3.37,23.05c-1.37,3.24-3.1,4.75-5.46,4.75c-2.89,0-6.8-1.23-11.33-3.56v0.52c0,0.87-0.07,1.38-0.19,2.24
			c5.28,2.31,8.69,3.3,11.36,3.3c2.97,0,4.9-1,6.66-3.44c3.02-4.42,4.91-14.5,4.91-26.3c0-6.42-0.99-9.65-3.64-11.92
			c-2.2-1.9-5.21-2.82-9.2-2.82c-1.88,0-3.43,0.08-6.39,0.32l-0.73,0.06l0.22-0.71c0.28-0.92,0.3-1.03,0.61-2.97l0.09-0.54
			c0.44-2.37,0.75-4.24,0.99-5.62c0.15-0.9,0.27-1.59,0.36-2.09c0.05-0.63,0.2-1.33,0.37-2.14l0.18-0.88
			c0.19-1.09,0.29-1.58,0.54-2.41l-3.31-0.35c0.02,0.15,0.03,0.28,0.03,0.39c0,3.19-1.09,10.73-2.47,17.17l-0.08,0.35l-0.35,0.04
			c-1.58,0.19-2.65,0.33-4.27,0.54l-1.36,0.18c-9.05,1.32-9.73,1.42-11.87,1.49l0.4,2.85c3.05-0.82,6.31-1.43,11.03-2.08l5.96-0.9
			l-0.17,0.72c-2.19,9.4-5.28,18.35-9.16,26.61C214.62,111.63,211.71,116.59,209.3,119.67z M272.5,100.9l-0.2-0.64
			c-3.17-10.31-8.81-19.6-16.3-26.86l-0.46-0.45l3.82-2.38l0.28,0.29c8.14,8.46,12.84,16.01,16.78,26.93l0.13,0.37L272.5,100.9z
			 M257.15,73.13c7.23,7.15,12.71,16.18,15.9,26.19l2.3-1.55c-3.81-10.46-8.37-17.78-16.15-25.92L257.15,73.13z M268.2,72.08
			l-0.24-0.49c-2.16-4.47-4.91-8.8-7.95-12.52l-0.38-0.47l3.68-2l0.26,0.33c2.97,3.69,5.74,7.88,8.23,12.46l0.23,0.42L268.2,72.08z
			 M261.16,58.9c2.83,3.53,5.4,7.58,7.46,11.76l2.06-1.22c-2.33-4.22-4.89-8.11-7.63-11.56L261.16,58.9z M276.46,67.63l-0.24-0.48
			c-2.25-4.43-4.78-8.4-7.73-12.14l-0.36-0.46l3.58-2l0.26,0.33c3.01,3.72,5.57,7.55,8.07,12.06l0.23,0.42L276.46,67.63z
			 M269.64,54.85c2.73,3.52,5.1,7.25,7.23,11.37l2.06-1.23c-2.32-4.14-4.7-7.71-7.47-11.16L269.64,54.85z"/>
		<path d="M118.29,199.56h-6.79l-19.38-24.98l-5.34,5.72v19.26h-5.69v-51.64h5.69v25.17l23.27-25.17h6.89l-20.99,22.56
			L118.29,199.56z M112,198.56h4.27l-21.6-28.14l20-21.5h-4.16l-24.71,26.73v-26.73h-3.69v49.64h3.69v-18.65l6.41-6.87L112,198.56z"
			/>
		<path d="M163.45,199.56h-6.24l-5.46-16.3h-19.7l-5.46,16.3h-5.68l17.55-51.64h7.15L163.45,199.56z M157.93,198.56h4.11
			l-17.14-49.64h-5.72l-16.87,49.64h3.56l5.46-16.3h21.15L157.93,198.56z M151.48,179.14h-19.09l9.58-28.44L151.48,179.14z
			 M133.79,178.14h16.31l-8.12-24.3L133.79,178.14z"/>
		<path d="M178.43,199.56h-5.69v-51.64h29.61v5.06h-23.92v18.72h22.17v5.13h-22.17V199.56z M173.74,198.56h3.69v-22.73h22.17v-3.13
			h-22.17v-20.72h23.92v-3.06h-27.61V198.56z"/>
		<path d="M241.17,199.56h-30.31v-51.64h29.61v5.06h-23.92v17.82h22.38v5.13h-22.38v18.58h24.62V199.56z M211.87,198.56h28.31v-3.06
			h-24.62v-20.58h22.38v-3.13h-22.38v-19.82h23.92v-3.06h-27.61V198.56z"/>
	</g>
	<path d="M209.55,252.25h-83.42C56.58,252.25,0,195.67,0,126.13S56.58,0,126.13,0h83.42c69.55,0,126.13,56.58,126.13,126.13
		S279.09,252.25,209.55,252.25z M126.13,1C57.13,1,1,57.13,1,126.13s56.13,125.13,125.13,125.13h83.42
		c69,0,125.13-56.13,125.13-125.13S278.54,1,209.55,1H126.13z M209.55,242.25h-83.42C62.09,242.25,10,190.16,10,126.13
		S62.09,10,126.13,10h83.42c64.03,0,116.13,52.09,116.13,116.13S273.58,242.25,209.55,242.25z M126.13,11
		C62.65,11,11,62.65,11,126.13s51.65,115.13,115.13,115.13h83.42c63.48,0,115.13-51.65,115.13-115.13S273.03,11,209.55,11H126.13z"
		/>
</g>
</svg>
