<?xml version="1.0" encoding="utf-8"?>
<!-- Generator: Adobe Illustrator 26.0.2, SVG Export Plug-In . SVG Version: 6.00 Build 0)  -->
<svg version="1.1" id="Layer_1" xmlns="http://www.w3.org/2000/svg" xmlns:xlink="http://www.w3.org/1999/xlink" x="0px" y="0px"
	 viewBox="0 0 335.67 252.25" style="enable-background:new 0 0 335.67 252.25;" xml:space="preserve">
<style type="text/css">
	.st0{fill:#FFFFFF;}
	.st1{fill:none;stroke:#000000;}
	.st2{fill:none;stroke:#000000;stroke-linecap:square;}
	.st3{fill:none;stroke:#000000;stroke-miterlimit:10;}
</style>
<path class="st0" d="M126.13,1C57.13,1,1,57.13,1,126.13s56.13,125.13,125.13,125.13h83.42c69,0,125.13-56.13,125.13-125.13
	S278.54,1,209.55,1H126.13z"/>
<g>
	<g>
		<path class="st1" d="M94.15,72.22c-0.24,1.35-0.24,1.35-0.32,5.16c-0.16,7.3-1.03,13.97-2.54,18.1
			c-2.38,6.83-6.83,12.62-13.18,17.07c-3.65,2.54-6.75,4.13-12.38,6.19c-0.79-1.75-1.11-2.3-2.38-3.65
			c6.51-1.91,10.64-3.97,14.84-7.46c6.43-5.24,9.84-11.35,11.19-20.16c0.48-3.41,0.71-7.22,0.71-11.35c0-1.98-0.08-2.46-0.32-3.89
			H94.15z M125.19,62.22c-0.79,0.95-0.79,0.95-1.75,2.86c-2.62,4.84-6.59,10.08-10.4,13.57c-3.73,3.49-7.86,6.11-13.1,8.25
			c-0.79-1.67-1.11-2.14-2.3-3.33c5.71-1.98,8.97-3.89,12.94-7.54c3.89-3.57,7.14-7.86,9.6-12.7H73.51c-3.81,0-6.11,0.08-8.73,0.4
			v-4.29c2.7,0.4,4.52,0.48,8.73,0.48h43.26c5.08,0,5.08,0,6.19-0.48L125.19,62.22z"/>
		<path class="st1" d="M137.83,103.1c2.7,0.4,4.52,0.48,8.73,0.48h44.77c4.21,0,6.03-0.08,8.73-0.48v4.45
			c-2.62-0.24-5-0.32-8.73-0.32h-44.77c-3.73,0-6.11,0.08-8.73,0.32V103.1z M145.84,65.79c2.46,0.4,4.21,0.48,8.02,0.48h30.08
			c3.81,0,5.56-0.08,8.02-0.48v4.37c-2.3-0.24-4.6-0.32-8.02-0.32h-30.08c-3.49,0-5.71,0.08-8.02,0.32V65.79z"/>
		<path class="st1" d="M224.29,69.76c8.1,4.84,15.08,9.53,21.11,14.05c3.65-5.64,6.75-11.75,9.76-19.13
			c1.98-4.92,2.38-6.11,2.78-8.33l4.68,1.91c-0.87,1.11-1.35,1.98-2.3,4.37c-4.76,11.59-7.46,16.83-11.91,23.58
			c6.75,5.56,12.38,10.79,18.49,17.22l-2.94,3.41c-4.21-5.48-9.68-10.88-17.78-17.46c-4.13,5.71-8.97,11.03-14.45,15.8
			c-5.32,4.68-10.16,8.02-17.78,12.3c-1.03-1.51-1.43-1.98-2.78-3.02c7.54-3.73,13.1-7.54,19.53-13.42
			c4.68-4.37,8.73-8.89,12.54-14.05c-7.7-6.03-14.92-10.87-21.59-14.37L224.29,69.76z"/>
		<path class="st2" d="M57.44,170.66c0-17.56,9.37-27.14,23.22-27.14c10.35,0,17.49,5.18,18.4,16.51l-4.41,0.42
			c-1.19-8.18-4.97-12.87-13.99-12.87c-11.4,0-18.47,7.69-18.47,22.52c0,15.46,6.5,21.89,17.42,21.89c8.46,0,13.08-3.57,14.9-11.47
			l4.13,0.91C96.75,192.2,88,195.91,79.26,195.91C63.66,195.91,57.44,185.56,57.44,170.66z"/>
		<path class="st2" d="M164.24,195.07h-5.18l-5.46-16.3h-20.42l-5.46,16.3h-4.62l17.21-50.64h6.43L164.24,195.07z M134.58,174.64
			h17.7l-8.81-26.37L134.58,174.64z"/>
		<path class="st2" d="M192.77,195.07v-50.64h28.61v4.06h-23.92v19.72h22.17v4.13h-22.17v22.73H192.77z"/>
		<path class="st2" d="M278.24,191.01v4.06h-29.31v-50.64h28.61v4.06h-23.92v18.82H276v4.13h-22.38v19.58H278.24z"/>
	</g>
	<path d="M209.55,252.25h-83.42C56.58,252.25,0,195.67,0,126.13S56.58,0,126.13,0h83.42c69.55,0,126.13,56.58,126.13,126.13
		S279.09,252.25,209.55,252.25z M126.13,1C57.13,1,1,57.13,1,126.13s56.13,125.13,125.13,125.13h83.42
		c69,0,125.13-56.13,125.13-125.13S278.54,1,209.55,1H126.13z M209.55,242.25h-83.42C62.09,242.25,10,190.16,10,126.13
		S62.09,10,126.13,10h83.42c64.03,0,116.13,52.09,116.13,116.13S273.58,242.25,209.55,242.25z M126.13,11
		C62.65,11,11,62.65,11,126.13s51.65,115.13,115.13,115.13h83.42c63.48,0,115.13-51.65,115.13-115.13S273.03,11,209.55,11H126.13z"
		/>
</g>
</svg>
