<?xml version="1.0" encoding="utf-8"?>
<!-- Generator: Adobe Illustrator 26.0.2, SVG Export Plug-In . SVG Version: 6.00 Build 0)  -->
<svg version="1.1" id="Layer_1" xmlns="http://www.w3.org/2000/svg" xmlns:xlink="http://www.w3.org/1999/xlink" x="0px" y="0px"
	 viewBox="0 0 550.38 252.25" style="enable-background:new 0 0 550.38 252.25;" xml:space="preserve">
<style type="text/css">
	.st0{fill:#FFFFFF;}
	.st1{fill:none;stroke:#000000;}
	.st2{fill:none;stroke:#000000;stroke-linecap:square;}
	.st3{fill:none;stroke:#000000;stroke-miterlimit:10;}
</style>
<path class="st0" d="M424.25,252.25H126.13C56.58,252.25,0,195.67,0,126.13S56.58,0,126.13,0h298.13
	c69.55,0,126.13,56.58,126.13,126.13S493.8,252.25,424.25,252.25z"/>
<g>
	<g>
		<path class="st1" d="M107.56,74.64c-0.24,1.35-0.24,1.35-0.32,5.16c-0.16,7.3-1.03,13.97-2.54,18.1
			c-2.38,6.83-6.83,12.62-13.18,17.07c-3.65,2.54-6.75,4.13-12.38,6.19c-0.79-1.75-1.11-2.3-2.38-3.65
			c6.51-1.91,10.64-3.97,14.84-7.46c6.43-5.24,9.84-11.35,11.19-20.16c0.48-3.41,0.71-7.22,0.71-11.35c0-1.98-0.08-2.46-0.32-3.89
			H107.56z M138.6,64.64c-0.79,0.95-0.79,0.95-1.75,2.86c-2.62,4.84-6.59,10.08-10.4,13.57c-3.73,3.49-7.86,6.11-13.1,8.25
			c-0.79-1.67-1.11-2.14-2.3-3.33c5.71-1.98,8.97-3.89,12.94-7.54c3.89-3.57,7.14-7.86,9.6-12.7H86.92c-3.81,0-6.11,0.08-8.73,0.4
			v-4.29c2.7,0.4,4.52,0.48,8.73,0.48h43.26c5.08,0,5.08,0,6.19-0.48L138.6,64.64z"/>
		<path class="st1" d="M158.55,105.52c2.7,0.4,4.52,0.48,8.73,0.48h44.77c4.21,0,6.03-0.08,8.73-0.48v4.45
			c-2.62-0.24-5-0.32-8.73-0.32h-44.77c-3.73,0-6.11,0.08-8.73,0.32V105.52z M166.56,68.21c2.46,0.4,4.21,0.48,8.02,0.48h30.08
			c3.81,0,5.56-0.08,8.02-0.48v4.37c-2.3-0.24-4.6-0.32-8.02-0.32h-30.08c-3.49,0-5.71,0.08-8.02,0.32V68.21z"/>
		<path class="st1" d="M252.32,72.18c8.1,4.84,15.08,9.53,21.11,14.05c3.65-5.64,6.75-11.75,9.76-19.13
			c1.98-4.92,2.38-6.11,2.78-8.33l4.68,1.91c-0.87,1.11-1.35,1.98-2.3,4.37c-4.76,11.59-7.46,16.83-11.91,23.58
			c6.75,5.56,12.38,10.79,18.5,17.22l-2.94,3.41c-4.21-5.48-9.68-10.88-17.78-17.46c-4.13,5.71-8.97,11.03-14.45,15.8
			c-5.32,4.68-10.16,8.02-17.78,12.3c-1.03-1.51-1.43-1.98-2.78-3.02c7.54-3.73,13.1-7.54,19.53-13.42
			c4.68-4.37,8.73-8.89,12.54-14.05c-7.7-6.03-14.92-10.87-21.59-14.37L252.32,72.18z"/>
		<path class="st1" d="M319.97,68.69c0-4.05-0.08-6.35-0.32-8.89c1.9,0.16,3.57,0.24,5.79,0.24h4.6c2.62,0,4.29-0.08,6.19-0.24
			c-0.24,2.46-0.24,3.73-0.24,8.73v34.53c0,4.52,0.08,6.03,0.24,8.33h-3.41v-6.03h-9.68v9.13h-3.65c0.4-2.7,0.48-4.52,0.48-8.89
			V68.69z M323.15,102.5h9.68V62.89h-9.68V102.5z M364.98,103.3c4.84,8.81,12.86,14.68,24.84,18.18c-0.95,1.11-1.51,1.98-1.98,3.17
			c-6.83-2.62-11.83-5.32-15.72-8.57c-4.37-3.49-7.38-7.22-9.68-11.67c-3.25,10.24-11.03,16.43-25.4,20.24
			c-0.48-1.11-0.95-1.9-1.98-3.1c4.84-1.03,7.78-1.9,10.79-3.33c7.54-3.57,11.51-7.94,13.65-14.92h-11.51
			c-4.21,0-5.95,0.08-7.94,0.4v-3.65c1.91,0.32,3.65,0.4,7.94,0.4h12.22c0.24-1.51,0.4-3.09,0.4-4.68c0-0.48,0-0.71-0.08-1.27h3.89
			c-0.24,0.95-0.56,2.94-1.03,5.95h17.22c3.81,0,5.87-0.16,7.94-0.48v3.81c-2.22-0.4-4.13-0.48-7.94-0.48H364.98z M345.21,76.39
			c-2.22,0-3.57,0.08-5.16,0.32v-3.25c1.51,0.24,2.78,0.32,5.16,0.32h3.57l-0.08-9.21h-5.24c-2.22,0-3.33,0.08-4.84,0.32v-3.25
			c1.43,0.24,2.54,0.32,4.84,0.32h5.16v-1.19c-0.08-3.57-0.16-4.76-0.56-6.83h4.05c-0.32,1.59-0.48,3.41-0.48,6.03v1.98h5.24
			c2.7,0,4.05-0.08,5.24-0.32v3.25c-1.59-0.24-2.78-0.32-5.16-0.32h-5.24l0.08,9.21h4.6c2.38,0,3.49-0.08,4.92-0.32v3.25
			c-1.51-0.24-2.7-0.32-4.92-0.32h-4.6l0.16,9.6c4.13-1.03,5.64-1.43,9.29-2.54l0.08,2.62c-6.98,2.14-10.56,3.1-19.29,5.08
			c-1.11,0.24-1.98,0.48-3.1,0.87l-0.95-3.49c2.46-0.16,4.84-0.56,10.95-1.9l-0.16-10.24H345.21z M369.19,61.94
			c-2.14,0-3.65,0.08-5.48,0.32v-3.57c1.83,0.32,3.1,0.4,6.11,0.4h12.14c2.54,0,3.89-0.08,5.4-0.24c-0.32,2.78-0.32,2.78-0.64,7.94
			c-0.71,11.83-1.43,17.78-2.62,21.04c-0.87,2.62-2.06,3.33-5.71,3.33c-2.54,0-3.1-0.08-6.83-0.56c-0.08-1.27-0.16-1.98-0.56-3.25
			c3.41,0.63,5.16,0.79,7.3,0.79c2.86,0,3.02-0.32,4.13-6.99c0.63-3.73,0.87-7.46,1.51-19.21h-10.16c-0.71,10-1.35,13.89-3.33,18.5
			c-2.14,5.24-5.16,8.89-10.88,13.41c-0.63-0.87-1.27-1.43-2.38-2.22c5.64-3.81,9.13-8.02,11.11-13.65
			c1.59-4.37,2.14-8.33,2.3-16.03H369.19z"/>
		<path class="st1" d="M445.1,69.72c3.17,4.37,8.89,9.21,15.8,13.33c6.03,3.57,11.75,5.95,19.05,8.02
			c-1.27,1.11-1.83,1.83-2.54,3.18c-6.98-2.46-12.22-5-18.49-8.89c-6.75-4.21-11.19-7.94-15.48-13.1
			c-8.18,10-18.26,16.67-33.1,21.99c-0.56-1.11-1.35-2.14-2.38-3.02c7.62-1.98,13.49-4.6,20.08-9.05
			c5.79-3.89,10.56-8.25,13.57-12.46H445.1z M417.95,64.96c-3.97,0-6.43,0.08-8.65,0.4v-3.81c2.14,0.32,4.6,0.48,8.65,0.48h11.99
			v-1.59c0-2.06-0.16-4.13-0.48-6.11h4.21c-0.32,1.91-0.48,3.97-0.48,6.11v1.59h21.19v-1.35c0-2.06-0.16-4.13-0.48-6.11h4.21
			c-0.32,1.91-0.48,3.97-0.48,6.11v1.35h12.22c4.13,0,6.59-0.16,8.73-0.48v3.81c-2.22-0.32-4.76-0.4-8.73-0.4h-12.22v3.17
			c0,1.83,0.16,3.57,0.4,5.64h-3.97c0.24-1.83,0.32-3.49,0.32-5.64v-3.17h-21.19v2.94c0,2.3,0.08,3.89,0.32,5.64h-3.97
			c0.24-2.14,0.4-3.89,0.4-5.64v-2.94H417.95z M431.52,104.8c-3.17,5-5,7.3-8.33,10.56c-2.94,2.86-4.92,4.52-8.65,7.06
			c-0.79-1.11-1.43-1.75-2.7-2.54c3.81-2.22,6.27-4.05,9.13-6.83c3.41-3.17,4.92-5.4,7.3-10L431.52,104.8z M462.08,95.04
			c4.52,0,6.59-0.08,8.73-0.48v3.89c-2.62-0.32-5.24-0.48-8.73-0.48h-17.22v19.69c0,2.86,0.16,5.32,0.56,7.86h-4.45
			c0.4-2.62,0.56-5.08,0.56-7.86V97.98h-15.32c-3.41,0-5.87,0.16-8.57,0.48v-3.89c2.06,0.4,4.21,0.48,8.57,0.48h15.32v-5.4
			c0-2.78-0.16-4.6-0.48-6.91h4.29c-0.32,2.22-0.48,4.05-0.48,6.99v5.32H462.08z M458.99,102.98c4.52,7.22,8.89,11.51,17.22,16.83
			c-1.19,0.79-1.91,1.43-2.7,2.62c-7.62-5.4-11.67-9.45-17.7-17.62L458.99,102.98z"/>
		<path class="st2" d="M111.27,197.49h-5.18l-5.46-16.3H80.22l-5.46,16.3h-4.62l17.21-50.64h6.43L111.27,197.49z M81.62,177.07h17.7
			L90.5,150.7L81.62,177.07z"/>
		<path class="st2" d="M128.94,151.88v45.61h-4.48v-50.64h6.71l26.3,44.97v-44.97h4.41v50.64h-5.95L128.94,151.88z"/>
		<path class="st2" d="M179.26,197.49v-50.64h4.69v50.64H179.26z"/>
		<path class="st2" d="M244.41,197.49v-45.61l-16.65,45.61h-5.53l-16.51-45.67v45.67h-4.41v-50.64h7.27l16.58,45.95l16.58-45.95
			h7.13v50.64H244.41z"/>
		<path class="st2" d="M295.58,193.43v4.06h-29.31v-50.64h28.61v4.06h-23.92v18.82h22.38v4.13h-22.38v19.58H295.58z"/>
		<path class="st2" d="M305.48,173.08c0-17.56,9.37-27.14,23.22-27.14c10.35,0,17.49,5.18,18.4,16.51l-4.41,0.42
			c-1.19-8.18-4.97-12.87-13.99-12.87c-11.4,0-18.47,7.69-18.47,22.52c0,15.46,6.5,21.89,17.42,21.89c8.46,0,13.08-3.57,14.9-11.47
			l4.13,0.91c-1.89,10.77-10.63,14.48-19.38,14.48C311.7,198.33,305.48,187.98,305.48,173.08z"/>
		<path class="st2" d="M396.93,197.49h-5.18l-5.46-16.3h-20.42l-5.46,16.3h-4.62l17.21-50.64h6.43L396.93,197.49z M367.27,177.07
			h17.7l-8.81-26.37L367.27,177.07z"/>
		<path class="st2" d="M410.12,197.49v-50.64h28.61v4.06H414.8v19.72h22.17v4.13H414.8v22.73H410.12z"/>
		<path class="st2" d="M480.24,193.43v4.06h-29.31v-50.64h28.61v4.06h-23.92v18.82H478v4.13h-22.38v19.58H480.24z"/>
	</g>
	<path d="M424.25,252.25H126.13C56.58,252.25,0,195.67,0,126.13S56.58,0,126.13,0h298.13c69.55,0,126.13,56.58,126.13,126.13
		S493.8,252.25,424.25,252.25z M126.13,1C57.13,1,1,57.13,1,126.13s56.13,125.13,125.13,125.13h298.13
		c69,0,125.13-56.13,125.13-125.13S493.25,1,424.25,1H126.13z M424.25,242.25H126.13C62.09,242.25,10,190.16,10,126.13
		S62.09,10,126.13,10h298.13c64.03,0,116.13,52.09,116.13,116.13S488.29,242.25,424.25,242.25z M126.13,11
		C62.65,11,11,62.65,11,126.13s51.65,115.13,115.13,115.13h298.13c63.48,0,115.13-51.65,115.13-115.13S487.74,11,424.25,11H126.13z"
		/>
</g>
</svg>
