<?xml version="1.0" encoding="utf-8"?>
<!-- Generator: Adobe Illustrator 26.0.2, SVG Export Plug-In . SVG Version: 6.00 Build 0)  -->
<svg version="1.1" id="Layer_1" xmlns="http://www.w3.org/2000/svg" xmlns:xlink="http://www.w3.org/1999/xlink" x="0px" y="0px"
	 viewBox="0 0 167.04 159.04" style="enable-background:new 0 0 167.04 159.04;" xml:space="preserve">
<style type="text/css">
	.st0{fill:#000;}
</style>
<g>
	<path class="st0" d="M134.03,158.54c-0.26,0-0.52-0.08-0.75-0.25l-48.42-35.18c-0.39-0.29-0.86-0.44-1.34-0.44
		s-0.95,0.15-1.34,0.44l-48.42,35.18c-0.23,0.17-0.48,0.25-0.75,0.25c-0.41,0-0.81-0.21-1.06-0.55c-0.24-0.33-0.3-0.73-0.17-1.14
		l18.5-56.92c0.31-0.94-0.03-1.97-0.83-2.55L1.03,62.2c-0.56-0.4-0.6-1-0.47-1.43c0.14-0.43,0.53-0.89,1.22-0.89h59.85
		c0.99,0,1.86-0.63,2.17-1.58L82.3,1.39c0.21-0.65,0.77-0.89,1.22-0.89s1.01,0.23,1.22,0.89l18.5,56.92
		c0.31,0.94,1.18,1.58,2.17,1.58h59.85c0.69,0,1.08,0.46,1.22,0.89c0.14,0.43,0.09,1.03-0.47,1.43l-48.42,35.18
		c-0.8,0.58-1.14,1.61-0.83,2.55l18.5,56.92c0.13,0.4,0.07,0.81-0.17,1.14C134.84,158.33,134.44,158.54,134.03,158.54z"/>
	<path d="M83.52,1c0.13,0,0.58,0.04,0.74,0.54l18.5,56.92c0.37,1.15,1.44,1.92,2.65,1.92h59.85c0.53,0,0.7,0.41,0.74,0.54
		c0.04,0.13,0.14,0.56-0.28,0.87L117.3,96.98c-0.98,0.71-1.38,1.96-1.01,3.11l18.5,56.92c0.1,0.32,0,0.55-0.1,0.69
		c-0.15,0.21-0.4,0.34-0.65,0.34c-0.16,0-0.31-0.05-0.45-0.16l-48.42-35.18c-0.48-0.35-1.04-0.53-1.63-0.53s-1.16,0.18-1.63,0.53
		l-48.42,35.18c-0.14,0.1-0.3,0.16-0.45,0.16c-0.25,0-0.5-0.13-0.65-0.34c-0.1-0.14-0.2-0.37-0.1-0.69l18.5-56.92
		c0.37-1.15-0.03-2.4-1.01-3.11L1.33,61.8C0.9,61.49,1,61.05,1.04,60.93c0.04-0.13,0.22-0.54,0.74-0.54h59.85
		c1.21,0,2.27-0.77,2.65-1.92l18.5-56.92C82.94,1.04,83.39,1,83.52,1 M83.52,0c-0.71,0-1.43,0.41-1.69,1.23l-18.5,56.92
		c-0.24,0.73-0.92,1.23-1.69,1.23H1.79c-1.73,0-2.44,2.21-1.05,3.22l48.42,35.18c0.62,0.45,0.89,1.26,0.65,1.99l-18.5,56.92
		c-0.41,1.25,0.59,2.34,1.7,2.34c0.35,0,0.71-0.11,1.04-0.35l48.42-35.18c0.31-0.23,0.68-0.34,1.05-0.34c0.37,0,0.73,0.11,1.05,0.34
		l48.42,35.18c0.33,0.24,0.69,0.35,1.04,0.35c1.11,0,2.11-1.09,1.7-2.34l-18.5-56.92c-0.24-0.73,0.02-1.54,0.65-1.99l48.42-35.18
		c1.4-1.01,0.68-3.22-1.05-3.22h-59.85c-0.77,0-1.46-0.5-1.69-1.23L85.22,1.23C84.95,0.41,84.24,0,83.52,0L83.52,0z"/>
</g>
</svg>
